<svg width="25" height="24" viewBox="0 0 25 24" fill="none" xmlns="http://www.w3.org/2000/svg">
<path d="M18.5 2V4M6.5 2V4" stroke="black" strokeWidth="1.5" strokeLinecap="round" strokeLinejoin="round"/>
<path d="M12.4955 13H12.5045M12.4955 17H12.5045M16.491 13H16.5M8.5 13H8.50897M8.5 17H8.50897" stroke="black" strokeWidth="2" strokeLinecap="round" strokeLinejoin="round"/>
<path d="M4 8H21" stroke="black" strokeWidth="1.5" strokeLinecap="round" strokeLinejoin="round"/>
<path d="M3 12.2432C3 7.88594 3 5.70728 4.25212 4.35364C5.50424 3 7.51949 3 11.55 3H13.45C17.4805 3 19.4958 3 20.7479 4.35364C22 5.70728 22 7.88594 22 12.2432V12.7568C22 17.1141 22 19.2927 20.7479 20.6464C19.4958 22 17.4805 22 13.45 22H11.55C7.51949 22 5.50424 22 4.25212 20.6464C3 19.2927 3 17.1141 3 12.7568V12.2432Z" stroke="black" strokeWidth="1.5" strokeLinecap="round" strokeLinejoin="round"/>
<path d="M3.5 8H21.5" stroke="black" strokeWidth="1.5" strokeLinecap="round" strokeLinejoin="round"/>
</svg>
