<svg width="150" height="22" viewBox="0 0 150 22" fill="none" xmlns="http://www.w3.org/2000/svg">
<g clip-path="url(#clip0_245_263)">
<path d="M122.29 8.95483H114.369V12.5228H122.29V8.95483Z" fill="black"/>
<path d="M114.39 17.8397C113.415 17.8451 112.45 17.6571 111.551 17.287C110.671 16.9364 109.877 16.4045 109.223 15.7269C108.568 15.0838 108.047 14.321 107.689 13.4812C107.298 12.599 107.1 11.6455 107.107 10.6828C107.102 9.73385 107.301 8.79455 107.689 7.92641C108.054 7.08206 108.574 6.31128 109.223 5.65272C109.885 4.9847 110.677 4.45423 111.551 4.09262C112.455 3.7418 113.418 3.56374 114.39 3.56793C115.341 3.55416 116.286 3.72915 117.168 4.08249C118.049 4.43583 118.85 4.96031 119.522 5.62473L122.091 3.14117C121.093 2.15667 119.915 1.36634 118.62 0.811524C117.287 0.252724 115.853 -0.0352783 114.404 -0.0352783C112.955 -0.0352783 111.521 0.252724 110.188 0.811524C108.883 1.35052 107.695 2.13194 106.689 3.11319C105.707 4.08493 104.917 5.22845 104.36 6.48523C103.772 7.80797 103.475 9.23855 103.487 10.6828C103.476 12.1269 103.773 13.5572 104.36 14.8804C104.924 16.1334 105.713 17.2757 106.689 18.2524C107.695 19.2337 108.883 20.0151 110.188 20.5541C111.521 21.1148 112.955 21.4039 114.404 21.4039C115.853 21.4039 117.287 21.1148 118.62 20.5541C119.916 20.0043 121.094 19.216 122.091 18.2314L119.522 15.7409C118.853 16.4129 118.055 16.9451 117.173 17.3057C116.291 17.6664 115.344 17.848 114.39 17.8397Z" fill="black"/>
<path d="M14.8559 8.8988H3.92514V0.300781H0V21.1347H3.92514V12.2079H14.8559V21.1347H18.7811V0.300781H14.8559V8.8988Z" fill="black"/>
<path d="M45.5117 3.05029C44.4715 2.07503 43.2462 1.31186 41.906 0.804585C38.9777 -0.267869 35.756 -0.267869 32.8277 0.804585C31.4824 1.31005 30.2521 2.07333 29.2078 3.05029C28.1819 4.00533 27.3696 5.161 26.8229 6.44331C25.6873 9.18066 25.6873 12.248 26.8229 14.9854C27.3714 16.2667 28.1835 17.422 29.2078 18.3784C30.2521 19.3553 31.4824 20.1186 32.8277 20.6241C34.2818 21.1726 35.8278 21.4456 37.3846 21.4286C38.9276 21.4459 40.4597 21.1728 41.8989 20.6241C43.2356 20.1165 44.46 19.3586 45.5046 18.3924C46.5336 17.4399 47.3464 16.2836 47.8895 14.9994C49.0252 12.2572 49.0252 9.18549 47.8895 6.44331C47.3449 5.16162 46.5351 4.006 45.5117 3.05029ZM44.227 13.6491C43.8682 14.5141 43.34 15.301 42.6725 15.9648C42.0036 16.6331 41.2012 17.1572 40.316 17.5039C38.4108 18.213 36.3087 18.213 34.4035 17.5039C33.5183 17.1572 32.7159 16.6331 32.047 15.9648C31.3761 15.2958 30.8476 14.5013 30.4925 13.6281C29.7447 11.7483 29.7447 9.65939 30.4925 7.77954C30.8554 6.91121 31.3885 6.12194 32.0612 5.45689C32.7322 4.7928 33.5342 4.27136 34.4177 3.92478C35.3556 3.56188 36.3558 3.38132 37.3633 3.39308C38.3731 3.38165 39.3756 3.56218 40.316 3.92478C41.2022 4.26626 42.0052 4.78835 42.6725 5.45689C43.3386 6.12444 43.8665 6.9133 44.227 7.77954C44.9748 9.66665 44.9748 11.762 44.227 13.6491Z" fill="black"/>
<path d="M59.8565 0.300781H55.9314V21.1347H70.908V17.8606H59.8565V0.300781Z" fill="black"/>
<path d="M83.592 0.293823L74.0808 21.1487H78.1266L80.256 16.3215H90.8318L92.9612 21.1487H97.007L87.4603 0.307818L83.592 0.293823ZM81.5407 13.2713L85.5013 4.17657L89.4762 13.2713H81.5407Z" fill="black"/>
<path d="M149.155 6.45723C148.609 5.17491 147.796 4.01923 146.77 3.06419C145.73 2.08894 144.505 1.32577 143.165 0.818501C140.236 -0.253953 137.015 -0.253953 134.087 0.818501C132.741 1.32397 131.511 2.08724 130.467 3.06419C129.441 4.01923 128.628 5.17491 128.082 6.45723C126.956 9.19646 126.956 12.26 128.082 14.9993C128.63 16.2806 129.442 17.4359 130.467 18.3923C131.511 19.3693 132.741 20.1325 134.087 20.638C135.543 21.1874 137.091 21.4604 138.65 21.4425C140.193 21.4598 141.726 21.1867 143.165 20.638C144.501 20.1304 145.726 19.3725 146.77 18.4063C147.799 17.4539 148.612 16.2975 149.155 15.0133C150.291 12.2711 150.291 9.1994 149.155 6.45723ZM145.493 13.663C145.129 14.527 144.599 15.3134 143.931 15.9787C143.264 16.6454 142.464 17.1694 141.582 17.5178C139.674 18.2267 137.57 18.2267 135.662 17.5178C134.777 17.1711 133.975 16.647 133.306 15.9787C132.635 15.3097 132.106 14.5152 131.751 13.6421C131.003 11.7622 131.003 9.67331 131.751 7.79345C132.114 6.92513 132.647 6.13585 133.32 5.4708C133.991 4.80671 134.793 4.28526 135.676 3.93868C136.614 3.57578 137.615 3.39524 138.622 3.407C139.634 3.39623 140.639 3.57671 141.582 3.93868C142.465 4.28196 143.265 4.80389 143.931 5.4708C144.597 6.13984 145.127 6.92822 145.493 7.79345C146.231 9.68233 146.231 11.7742 145.493 13.663Z" fill="black"/>
</g>
<defs>
<clipPath id="clip0_245_263">
<rect width="150" height="21.4286" fill="white"/>
</clipPath>
</defs>
</svg>
