<svg width="20" height="20" viewBox="0 0 20 20" fill="none" xmlns="http://www.w3.org/2000/svg">
<path d="M17.9527 9.20425C18.206 9.5595 18.3327 9.73716 18.3327 10.0001C18.3327 10.263 18.206 10.4407 17.9527 10.7959C16.8143 12.3922 13.907 15.8334 9.99935 15.8334C6.09167 15.8334 3.18443 12.3922 2.04605 10.7959C1.79269 10.4407 1.66602 10.263 1.66602 10.0001C1.66602 9.73716 1.79269 9.5595 2.04605 9.20425C3.18443 7.60795 6.09167 4.16675 9.99935 4.16675C13.907 4.16675 16.8143 7.60795 17.9527 9.20425Z" stroke="#6B7280" strokeWidth="1.5"/>
<path d="M12.5 10C12.5 8.61925 11.3807 7.5 10 7.5C8.61925 7.5 7.5 8.61925 7.5 10C7.5 11.3807 8.61925 12.5 10 12.5C11.3807 12.5 12.5 11.3807 12.5 10Z" stroke="#6B7280" strokeWidth="1.5"/>
</svg>
